<?xml version="1.0" encoding="UTF-8"?>
<svg xmlns="http://www.w3.org/2000/svg" version="1.1" viewBox="0 0 64 64">
  <defs>
    <style>
      .cls-1 {
        fill: #231f20;
      }

      .cls-2 {
        fill: #b9fe00;
      }
    </style>
  </defs>
  <!-- Generator: Adobe Illustrator 28.6.0, SVG Export Plug-In . SVG Version: 1.2.0 Build 709)  -->
  <g>
    <g id="prefix__Layer_1">
      <path d="M32,9.7h18c2.3,0,3.7,1,4.2,3,0,.3,0,.6,0,.9v36.8c0,2.5-1.6,4.1-4.2,4.1H13.7c-2.5,0-4.2-1.6-4.2-4.2V13.6c0-2.1,1.6-3.8,3.7-3.8,6.4-.1,18.8-.1,18.8-.1ZM17.7,1.2c-.7,0-1.2.1-1.3,1l-.7,5.5c-.1.6.2.9.7.9h5c.6,0,.8-.2.7-.8l-.8-5.8c-.1-.5-.4-.8-.9-.8,0,0-2.7,0-2.7,0ZM43.9,1.2c-.7,0-1.2.1-1.3,1l-.7,5.5c0,.6.2.9.7.9h5c.6,0,.8-.2.7-.8l-.8-5.8c0-.5-.4-.8-.9-.8,0,0-2.7,0-2.7,0ZM30.8,1.2c-.7,0-1.2.1-1.3,1l-.7,5.5c-.1.6.2.9.7.9h5c.6,0,.8-.2.7-.8l-.8-5.8c0-.5-.4-.8-.9-.8h-2.7ZM20.1,62.8c.7,0,1.2,0,1.3-1l.7-5.5c.1-.6-.2-.9-.7-.9h-5c-.6,0-.8.2-.7.8l.8,5.8c.1.5.4.8.9.8,0,0,2.7,0,2.7,0ZM33.2,62.8c.7,0,1.2,0,1.3-1l.7-5.5c0-.6-.2-.9-.7-.9h-5c-.6,0-.8.2-.7.8l.8,5.8c.1.5.4.8.9.8,0,0,2.7,0,2.7,0ZM46.2,62.8c.7,0,1.2,0,1.3-1l.7-5.5c0-.6-.2-.9-.7-.9h-5c-.6,0-.8.2-.7.8l.8,5.8c0,.5.4.8.9.8,0,0,2.7,0,2.7,0ZM62.8,44c0-.7,0-1.2-1-1.3l-5.5-.7c-.6,0-.9.2-.9.7v5c0,.6.2.8.8.7l5.8-.8c.5,0,.8-.4.8-.9,0,0,0-2.7,0-2.7ZM62.8,30.9c0-.7,0-1.2-1-1.3l-5.5-.7c-.6-.1-.9.2-.9.7v5c0,.6.2.8.8.7l5.8-.8c.5,0,.8-.4.8-.9,0,0,0-2.7,0-2.7ZM62.8,17.8c0-.7,0-1.2-1-1.3l-5.5-.7c-.6-.1-.9.2-.9.7v5c0,.6.2.8.8.7l5.8-.8c.5-.1.8-.4.8-.9,0,0,0-2.7,0-2.7ZM1.2,20.1c0,.7.1,1.2,1,1.3l5.5.7c.6.1.9-.2.9-.7v-5c0-.6-.2-.8-.8-.7l-5.8.8c-.5.1-.8.4-.8.9,0,0,0,2.7,0,2.7ZM1.2,33.2c0,.7.1,1.2,1,1.3l5.5.7c.6,0,.9-.2.9-.7v-5c0-.6-.2-.8-.8-.7l-5.8.8c-.5.1-.8.4-.8.9,0,0,0,2.7,0,2.7ZM1.2,46.2c0,.7.1,1.2,1,1.3l5.5.7c.6,0,.9-.2.9-.7v-5c0-.6-.2-.8-.8-.7l-5.8.8c-.5,0-.8.4-.8.9,0,0,0,2.7,0,2.7Z"/>
      <path class="cls-2" d="M49.9,45.2c0,2.7-2.1,4.7-4.7,4.7h-26.4c-2.7,0-4.7-2.2-4.7-4.8v-26.4c0-2.5,1.8-4.5,4.4-4.7,1.2-.1,2.4,0,3.7,0,7.8,0,15.5,0,23.3.1,2.5,0,4.5,1.9,4.5,4.5,0,4.5,0,22.2,0,26.6Z"/>
      <path class="cls-1" d="M25.7,19.9c2,2,3.9,3.8,5.7,5.8.5.5.7.5,1.2,0,1.7-1.8,3.5-3.5,5.2-5.2.3-.4.5-.5.9-.1,1.6,1.7,3.2,3.3,4.9,4.9.4.4.4.5,0,.9l-5.4,5.4c-.3.3-.4.5,0,.9,1.8,1.7,3.5,3.5,5.3,5.3.5.4.6.7,0,1.2-1.6,1.5-3.2,3.1-4.8,4.8-.4.4-.5.3-.9,0-1.8-1.8-3.6-3.5-5.3-5.3-.4-.4-.6-.5-1.1,0-1.7,1.8-3.5,3.5-5.2,5.2-.5.5-.7.4-1.1,0-1.5-1.6-3.1-3.2-4.7-4.7-.4-.4-.4-.7,0-1,1.7-1.7,3.4-3.4,5.1-5,.7-.6.4-1-.1-1.5-1.7-1.6-3.3-3.3-5-4.9-.5-.5-.5-.7,0-1.2,1.8-1.9,3.5-3.7,5.2-5.5Z"/>
    </g>
  </g>
</svg>